<svg
   version="1.1"
   class="nube_dere"
   id="svg1"
   width="2044"
   height="1474"
   viewBox="0 0 2044 1474"
   sodipodi:docname="CHAT OVERLAY.svg"
   inkscape:version="1.3.2 (091e20e, 2023-11-25, custom)"
   xml:space="preserve"
   xmlns:inkscape="http://www.inkscape.org/namespaces/inkscape"
   xmlns:sodipodi="http://sodipodi.sourceforge.net/DTD/sodipodi-0.dtd"
   xmlns:xlink="http://www.w3.org/1999/xlink"
   xmlns="http://www.w3.org/2000/svg"
   xmlns:svg="http://www.w3.org/2000/svg"><defs
     id="defs1"><linearGradient
       id="linearGradient41"
       inkscape:collect="always"><stop
         style="stop-color:#b8aff2;stop-opacity:1;"
         offset="0"
         id="stop41" /><stop
         style="stop-color:#968eda;stop-opacity:1;"
         offset="0.46829268"
         id="stop43" /><stop
         style="stop-color:#665fb6;stop-opacity:1;"
         offset="1"
         id="stop42" /></linearGradient><linearGradient
       id="linearGradient33"
       inkscape:collect="always"><stop
         style="stop-color:#ffffff;stop-opacity:1;"
         offset="0"
         id="stop34" /><stop
         style="stop-color:#ffffff;stop-opacity:0;"
         offset="1"
         id="stop35" /></linearGradient><linearGradient
       id="swatch28"
       inkscape:swatch="solid"><stop
         style="stop-color:#ffffff;stop-opacity:1;"
         offset="0"
         id="stop29" /></linearGradient><linearGradient
       id="linearGradient12"
       inkscape:collect="always"><stop
         style="stop-color:#473b7a;stop-opacity:1;"
         offset="0"
         id="stop11" /><stop
         style="stop-color:#372f66;stop-opacity:1;"
         offset="0.5"
         id="stop13" /><stop
         style="stop-color:#211e49;stop-opacity:1;"
         offset="1"
         id="stop12" /></linearGradient><radialGradient
       inkscape:collect="always"
       xlink:href="#linearGradient12"
       id="radialGradient11"
       cx="-1118"
       cy="750"
       fx="-1118"
       fy="750"
       r="1018"
       gradientTransform="matrix(1,0,0,0.57170923,11.959595,302.59065)"
       gradientUnits="userSpaceOnUse"
       spreadMethod="pad" /><filter
       inkscape:collect="always"
       style="color-interpolation-filters:sRGB"
       id="filter13"
       x="-0.009073949"
       y="-0.015871615"
       width="1.0181479"
       height="1.0317432"><feGaussianBlur
         inkscape:collect="always"
         stdDeviation="7.6977333"
         id="feGaussianBlur13" /></filter><filter
       inkscape:collect="always"
       style="color-interpolation-filters:sRGB"
       id="filter14"
       x="-0.53948353"
       y="-0.53948353"
       width="2.0789671"
       height="2.0789671"><feGaussianBlur
         inkscape:collect="always"
         stdDeviation="145.66056"
         id="feGaussianBlur14" /></filter><linearGradient
       inkscape:collect="always"
       xlink:href="#linearGradient33"
       id="linearGradient35"
       x1="-1121.7594"
       y1="640.37854"
       x2="-1119.6331"
       y2="992.5177"
       gradientUnits="userSpaceOnUse"
       gradientTransform="translate(791.9596,-22.627417)" /><linearGradient
       inkscape:collect="always"
       xlink:href="#linearGradient33"
       id="linearGradient38"
       gradientUnits="userSpaceOnUse"
       x1="-1121.7594"
       y1="640.37854"
       x2="-1119.6331"
       y2="992.5177"
       gradientTransform="matrix(-1,0,0,1,-3005.2334,-351.46117)" /><filter
       inkscape:collect="always"
       style="color-interpolation-filters:sRGB"
       id="filter14-9"
       x="-0.53948353"
       y="-0.53948353"
       width="2.0789671"
       height="2.0789671"><feGaussianBlur
         inkscape:collect="always"
         stdDeviation="145.66056"
         id="feGaussianBlur14-5" /></filter><filter
       inkscape:collect="always"
       style="color-interpolation-filters:sRGB"
       id="filter39"
       x="-0.0059898521"
       y="-0.016145428"
       width="1.0119797"
       height="1.0322909"><feGaussianBlur
         inkscape:collect="always"
         stdDeviation="7.2941647"
         id="feGaussianBlur39" /></filter><linearGradient
       inkscape:collect="always"
       xlink:href="#linearGradient41"
       id="linearGradient42"
       x1="-1435.2329"
       y1="163.92975"
       x2="-1067.7585"
       y2="727.92975"
       gradientUnits="userSpaceOnUse" /><filter
       inkscape:collect="always"
       style="color-interpolation-filters:sRGB"
       id="filter47"
       x="-0.071394021"
       y="-0.071394021"
       width="1.142788"
       height="1.142788"><feGaussianBlur
         inkscape:collect="always"
         stdDeviation="18.942035"
         id="feGaussianBlur47" /></filter><filter
       inkscape:collect="always"
       style="color-interpolation-filters:sRGB"
       id="filter48"
       x="-0.066620384"
       y="-0.28747854"
       width="1.1332027"
       height="1.5750334"><feGaussianBlur
         inkscape:collect="always"
         stdDeviation="25.249306"
         id="feGaussianBlur48" /></filter></defs><sodipodi:namedview
     id="namedview1"
     pagecolor="#505050"
     bordercolor="#eeeeee"
     borderopacity="1"
     inkscape:showpageshadow="0"
     inkscape:pageopacity="0"
     inkscape:pagecheckerboard="0"
     inkscape:deskcolor="#505050"
     inkscape:zoom="0.25"
     inkscape:cx="-1094"
     inkscape:cy="730"
     inkscape:window-width="1360"
     inkscape:window-height="705"
     inkscape:window-x="-8"
     inkscape:window-y="-8"
     inkscape:window-maximized="1"
     inkscape:current-layer="layer7"
     showgrid="false"><inkscape:page
       x="0"
       y="0"
       width="2044"
       height="1474"
       id="page161"
       margin="0"
       bleed="0"
       inkscape:export-filename="nube-izq.svg"
       inkscape:export-xdpi="96"
       inkscape:export-ydpi="96" /></sodipodi:namedview><g
     inkscape:groupmode="layer"
     id="layer7"
     inkscape:label="FONDO"
     transform="translate(2132.0002,3.9999995)"><rect
       style="display:none;opacity:1;mix-blend-mode:normal;fill:url(#radialGradient11);stroke-width:20.949;stroke-linecap:round;stroke-linejoin:round;filter:url(#filter13)"
       id="rect1"
       width="2036"
       height="1164"
       x="-2124.0403"
       y="149.37259"
       ry="128"
       inkscape:label="fondo" /><circle
       style="display:none;opacity:1;mix-blend-mode:normal;fill:#7859a8;fill-opacity:1;stroke-width:20.949;stroke-linecap:round;stroke-linejoin:round;filter:url(#filter14)"
       id="path13"
       cx="-504.04041"
       cy="991.37256"
       r="324"
       inkscape:label="aura rosa" /><circle
       style="display:none;opacity:0.712042;mix-blend-mode:normal;fill:#7859a8;fill-opacity:1;stroke-width:20.949;stroke-linecap:round;stroke-linejoin:round;filter:url(#filter14-9)"
       id="path13-0"
       cx="-2115.334"
       cy="814.68372"
       r="324"
       inkscape:label="aura rosa"
       transform="matrix(0.77744968,0,0,0.93701406,-309.54792,-47.681328)" /><path
       id="path14"
       style="display:inline;opacity:1;fill:url(#linearGradient35);fill-rule:evenodd;stroke-width:20.949;stroke-linecap:round;stroke-linejoin:round"
       inkscape:label="nube 1"
       inkscape:transform-center-x="63.639579"
       inkscape:transform-center-y="49.49749"
       d="m -160.66735,666.42531 c -76.95445,-1.63016 -136.00325,62.05401 -141.50005,120.62305 -6.8465,-3.25735 -15.5911,-3.94175 -24.8339,-2.44336 -30.0713,-2.3403 -73.6722,23.51684 -75.961,71.61133 -12.4648,-5.61988 -23.5617,-4.45408 -32.6523,1.0332 -31.0728,-1.5468 -50.4858,38.521 -45.8047,74.53321 -3.857,-0.16326 -7.0312,0.21341 -9.6816,0.98437 -6.2303,-8.1032 -15.7398,-11.83399 -35.9766,-1.26172 5.5511,-24.53344 -18.1891,-49.60095 -38.207,-25.93554 -8.5053,-4.66864 -19.4542,-2.74918 -29.2735,10.95898 -6.3304,1.07706 -10.8314,4.76843 -13.9277,9.74023 -29.2308,-8.69789 -36.9825,18.65397 -34.9317,38.88282 0,0 -4.8215,23.3637 21.9903,35.81642 113.5276,52.728 516.28709,17.5898 516.28709,17.5898 l 0.15039,-13.5097 c 1.3e-4,0 0.0547,0 0.0547,0 l 3.53515,-319.61137 c -0.0184,-0.008 -0.0363,-0.0151 -0.0547,-0.0234 l 0.0547,-4.97852 c -20.47673,-9.2837 -40.40722,-13.60633 -59.26757,-14.00586 z" /><path
       id="path14-6"
       style="display:none;fill:url(#linearGradient38);fill-rule:evenodd;stroke-width:20.949;stroke-linecap:round;stroke-linejoin:round"
       inkscape:label="nube"
       inkscape:transform-center-x="-63.639594"
       inkscape:transform-center-y="49.49749"
       d="m -2052.6049,337.59133 c -18.8603,0.39953 -38.7927,4.72215 -59.2695,14.00586 l 0.055,4.97851 c -0.018,0.008 -0.036,0.0151 -0.055,0.0234 l 3.5352,319.61133 c 0,0 0.054,0.004 0.055,0.004 l 0.1503,13.51172 c 0,0 402.7596,35.13615 516.2872,-17.5918 26.8117,-12.45269 21.9921,-35.81641 21.9921,-35.81641 2.0509,-20.2288 -5.7028,-47.58071 -34.9335,-38.88281 -3.0967,-4.97228 -7.5964,-8.66357 -13.9278,-9.74023 -9.8193,-13.70797 -20.7682,-15.62774 -29.2734,-10.95899 -20.018,-23.6654 -43.7581,1.4021 -38.207,25.93555 -20.2368,-10.57227 -29.7464,-6.84148 -35.9766,1.26172 -2.6505,-0.77096 -5.8246,-1.14763 -9.6817,-0.98438 4.6813,-36.01283 -14.7309,-76.08146 -45.8046,-74.5332 -9.0904,-5.48665 -20.1881,-6.65284 -32.6524,-1.0332 -2.2893,-48.09311 -45.8879,-73.95072 -75.959,-71.61133 -9.2437,-1.49884 -17.9888,-0.81434 -24.8359,2.44336 -5.4968,-58.56905 -64.5436,-122.25321 -141.4981,-120.62305 z" /><path
       id="path39"
       style="display:none;opacity:1;mix-blend-mode:normal;fill:#ffffff;fill-opacity:1;fill-rule:evenodd;stroke-width:20.949;stroke-linecap:round;stroke-linejoin:round;filter:url(#filter39)"
       d="m -350.93019,329.30883 a 10.364437,10.364437 0 0 0 -10.36104,10.36104 10.364437,10.364437 0 0 0 10.36104,10.3649 10.364437,10.364437 0 0 0 10.3649,-10.3649 10.364437,10.364437 0 0 0 -10.3649,-10.36104 z m 1104.92968,24.79069 a 21.213203,21.213203 0 0 0 -21.21324,21.21324 21.213203,21.213203 0 0 0 21.21324,21.21325 21.213203,21.213203 0 0 0 21.21325,-21.21325 21.213203,21.213203 0 0 0 -21.21325,-21.21324 z M -2081.5907,483.76137 a 10.364437,10.364437 0 0 0 -10.361,10.36104 10.364437,10.364437 0 0 0 10.361,10.3649 10.364437,10.364437 0 0 0 10.3649,-10.3649 10.364437,10.364437 0 0 0 -10.3649,-10.36104 z M 809.44399,750.13166 a 21.213203,21.213203 0 0 0 -21.21324,21.21325 21.213203,21.213203 0 0 0 21.21324,21.21324 21.213203,21.213203 0 0 0 21.21325,-21.21324 21.213203,21.213203 0 0 0 -21.21325,-21.21325 z m -2361.00909,11.70306 a 4.126397,4.126397 0 0 0 -4.1266,4.12663 4.126397,4.126397 0 0 0 4.1266,4.12275 4.126397,4.126397 0 0 0 4.1267,-4.12275 4.126397,4.126397 0 0 0 -4.1267,-4.12663 z m 1378.84937,4.13823 a 21.213203,21.213203 0 0 0 -21.21324,21.21324 21.213203,21.213203 0 0 0 21.21324,21.21325 21.213203,21.213203 0 0 0 21.21325,-21.21325 21.213203,21.213203 0 0 0 -21.21325,-21.21324 z m -708.4025,1.74037 a 4.126397,4.126397 0 0 0 -4.12662,4.12663 4.126397,4.126397 0 0 0 4.12662,4.12662 4.126397,4.126397 0 0 0 4.12662,-4.12662 4.126397,4.126397 0 0 0 -4.12662,-4.12663 z m 1245.5211,1.98017 a 4.126397,4.126397 0 0 0 -4.12662,4.12662 4.126397,4.126397 0 0 0 4.12662,4.12662 4.126397,4.126397 0 0 0 4.12662,-4.12662 4.126397,4.126397 0 0 0 -4.12662,-4.12662 z m -1036.1191,133.86195 a 10.364437,10.364437 0 0 0 -10.36104,10.36104 10.364437,10.364437 0 0 0 10.36104,10.36491 10.364437,10.364437 0 0 0 10.3649,-10.36491 10.364437,10.364437 0 0 0 -10.3649,-10.36104 z m -1362.35057,23.76193 a 10.364437,10.364437 0 0 0 -10.3611,10.36104 10.364437,10.364437 0 0 0 10.3611,10.3649 10.364437,10.364437 0 0 0 10.3649,-10.3649 10.364437,10.364437 0 0 0 -10.3649,-10.36104 z m 1354.92496,81.97553 a 4.126397,4.126397 0 0 0 -4.12662,4.1267 4.126397,4.126397 0 0 0 4.12662,4.1266 4.126397,4.126397 0 0 0 4.12663,-4.1266 4.126397,4.126397 0 0 0 -4.12663,-4.1267 z m -856.69406,1.868 a 21.213203,21.213203 0 0 0 -21.2133,21.2133 21.213203,21.213203 0 0 0 21.2133,21.2132 21.213203,21.213203 0 0 0 21.2132,-21.2132 21.213203,21.213203 0 0 0 -21.2132,-21.2133 z m 2155.18446,130.0138 a 10.364437,10.364437 0 0 0 -10.36103,10.3611 10.364437,10.364437 0 0 0 10.36103,10.3649 10.364437,10.364437 0 0 0 10.36491,-10.3649 10.364437,10.364437 0 0 0 -10.36491,-10.3611 z m -703.397951,11.1268 a 4.126397,4.126397 0 0 0 -4.126624,4.1267 4.126397,4.126397 0 0 0 4.126624,4.1266 4.126397,4.126397 0 0 0 4.126624,-4.1266 4.126397,4.126397 0 0 0 -4.126624,-4.1267 z m -1344.088209,24.5161 a 10.364437,10.364437 0 0 0 -10.3611,10.3611 10.364437,10.364437 0 0 0 10.3611,10.3649 10.364437,10.364437 0 0 0 10.3649,-10.3649 10.364437,10.364437 0 0 0 -10.3649,-10.3611 z m 65.8403,26.5311 a 4.126397,4.126397 0 0 0 -4.1227,4.1266 4.126397,4.126397 0 0 0 4.1227,4.1266 4.126397,4.126397 0 0 0 4.1266,-4.1266 4.126397,4.126397 0 0 0 -4.1266,-4.1266 z m 1473.44844,26.3222 a 21.213203,21.213203 0 0 0 -21.213245,21.2132 21.213203,21.213203 0 0 0 21.213245,21.2133 21.213203,21.213203 0 0 0 21.21325,-21.2133 21.213203,21.213203 0 0 0 -21.21325,-21.2132 z m -126.939131,72.6858 a 4.126397,4.126397 0 0 0 -4.126624,4.1266 4.126397,4.126397 0 0 0 4.126624,4.1267 4.126397,4.126397 0 0 0 4.126624,-4.1267 4.126397,4.126397 0 0 0 -4.126624,-4.1266 z M -1130.6185,1405.3251 a 4.126397,4.126397 0 0 0 -4.1266,4.1266 4.126397,4.126397 0 0 0 4.1266,4.1266 4.126397,4.126397 0 0 0 4.1266,-4.1266 4.126397,4.126397 0 0 0 -4.1266,-4.1266 z"
       transform="matrix(0.50500951,0,0,0.50500951,-777.22418,494.01622)"
       inkscape:label="estrellitas" /><g
       id="g48"
       inkscape:label="planeta"
       style="display:none"><circle
         style="opacity:1;fill:url(#linearGradient42);fill-opacity:1;fill-rule:evenodd;stroke:none;stroke-width:20.949;stroke-linecap:round;stroke-linejoin:round"
         id="path40"
         cx="-1123.4957"
         cy="671.92975"
         r="391.73718" /><path
         style="opacity:1;fill:#6a63a1;fill-opacity:1;fill-rule:evenodd;stroke:none;stroke-width:20.949;stroke-linecap:round;stroke-linejoin:round"
         d="m -1266.7537,306.57488 c -68.606,25.83612 -126.0041,69.87752 -122.1874,85.80641 4.6658,19.47241 -16.6256,2.79276 -25.375,15.51169 0,0 -39.3937,38.48279 -38.0251,57.25463 0.8515,11.67843 34.3826,7.37758 29.8142,14.70078 -44.668,71.60376 -15.9693,85.84245 14.9311,75.35409 14.5545,-4.94018 29.7995,-33.13546 37.7188,-30.71116 99.0858,30.33263 103.2774,18.41555 71.107,-47.6844 -16.8809,-34.68498 160.7069,85.14971 26.9229,-106.2316 -20.8031,-29.75954 52.7066,-34.57065 5.0935,-64.00044 z"
         id="path43"
         sodipodi:nodetypes="cssssssssc" /><path
         style="opacity:1;fill:#5a538d;fill-opacity:1;fill-rule:evenodd;stroke:none;stroke-width:20.949;stroke-linecap:round;stroke-linejoin:round"
         d="m -793.55756,465.45166 c -21.7974,134.55338 -136.2722,36.77939 -123.7437,86.26703 0,0 9.6333,40.26777 0.7071,57.27564 -10.0509,19.15091 -48.19644,9.52821 -49.49744,27.57717 -2.5183,34.93633 33.34004,16.72555 74.95324,48.08327 17.312,13.04545 25.0804,36.06179 47.3762,41.71929 7.6594,1.94356 16.6196,-11.41999 23.3345,-2.12131 11.9975,16.6138 25.5472,75.12689 60.8112,60.10407 66.07531,-28.14874 -38.3457,-93.25275 -38.1838,-150.61374 0.058,-20.61815 3.5356,-55.15434 3.5356,-55.15434 2.6029,-13.99092 27.3076,-7.24701 38.8909,-37.47666 3.3311,-8.69354 -36.8178,-84.09272 -38.1838,-75.66042 z"
         id="path44"
         sodipodi:nodetypes="ssssssssssss" /><path
         style="opacity:1;fill:#595288;fill-opacity:0.893983;fill-rule:evenodd;stroke:none;stroke-width:20.949;stroke-linecap:round;stroke-linejoin:round"
         d="m -1374.5836,800.47247 c -5.8385,28.11976 -50.6916,28.60395 -45.8762,50.58327 8.4404,38.52546 90.9409,22.5236 110.6726,40.34062 13.9863,12.62912 -16.7829,92.99819 13.6066,109.03044 19.6825,10.3838 56.3143,-40.04324 60.9828,-37.73398 6.8971,3.41163 47.933,64.03338 69.5538,45.63348 34.7356,-29.56085 -5.2994,-61.46332 2.6213,-94.88831 7.7839,-32.84763 62.9834,-62.34657 54.397,-78.02439 -13.6336,-24.89338 -68.6048,16.20032 -84.8528,-7.07107 -15.0158,-21.50656 38.3027,-56.31833 20.8848,-75.86753 -24.5754,-27.5824 -75.0578,10.92437 -112.5158,12.88478 -23.6591,1.23823 -53.4827,-42.84062 -53.4827,-42.84062 -36.8092,-9.85808 -30.7567,52.74174 -35.9914,77.95331 z"
         id="path45"
         sodipodi:nodetypes="sssssssssssss" /><path
         style="opacity:1;fill:#ffffff;fill-opacity:1;fill-rule:evenodd;stroke:none;stroke-width:20.7116;stroke-linecap:round;stroke-linejoin:round"
         d="m -1503.1717,599.5 -4.5591,6.34153 c -312.8514,145.43142 607.75301,234.5626 777.37437,154.65662 43.07641,-25.27201 3.76133,-65.39781 -1.60295,-59.49711 l 1.92766,-41.19216 c 39.42686,16.74775 82.31406,19.38638 121.74092,71.34785 44.96227,59.2567 -150.22414,139.53632 -501.8846,108.09577 -174.6203,-11.17758 -347.9164,-31.29249 -512.1311,-112.70839 0,0 -52.078,-31.42163 -43.5015,-55.36553 19.4365,-54.26254 162.6363,-71.67858 162.6363,-71.67858 z"
         id="path47"
         sodipodi:nodetypes="cccccsccsc"
         inkscape:label="anillo" /><circle
         style="opacity:1;fill:none;fill-opacity:1;fill-rule:evenodd;stroke:#ffffff;stroke-width:20.949;stroke-linecap:round;stroke-linejoin:round;stroke-opacity:1;filter:url(#filter47)"
         id="circle47"
         cx="-1123.4957"
         cy="671.92975"
         r="391.73718" /><path
         style="opacity:1;fill:none;fill-opacity:1;fill-rule:evenodd;stroke:#ffffff;stroke-width:20.7116;stroke-linecap:round;stroke-linejoin:round;stroke-opacity:1;filter:url(#filter48)"
         d="m -1503.1717,599.5 -4.5591,6.34153 c -312.8514,145.43142 607.75301,234.5626 777.37437,154.65662 43.07641,-25.27201 3.76133,-65.39781 -1.60295,-59.49711 l 1.92766,-41.19216 c 39.42686,16.74775 82.31406,19.38638 121.74092,71.34785 44.96227,59.2567 -150.22414,139.53632 -501.8846,108.09577 -174.6203,-11.17758 -347.9164,-31.29249 -512.1311,-112.70839 0,0 -52.078,-31.42163 -43.5015,-55.36553 19.4365,-54.26254 162.6363,-71.67858 162.6363,-71.67858 z"
         id="path48"
         sodipodi:nodetypes="cccccsccsc"
         inkscape:label="anillo" /></g></g></svg>
